<svg width="273" height="78" viewBox="0 0 273 78" fill="none" xmlns="http://www.w3.org/2000/svg">
<g clip-path="url(#clip0_1320_1706)">
<mask id="mask0_1320_1706" style="mask-type:luminance" maskUnits="userSpaceOnUse" x="0" y="0" width="273" height="78">
<path d="M272.333 0H0.333252V78H272.333V0Z" fill="white"/>
</mask>
<g mask="url(#mask0_1320_1706)">
<mask id="mask1_1320_1706" style="mask-type:luminance" maskUnits="userSpaceOnUse" x="0" y="0" width="273" height="79">
<path d="M272.168 0.143005H0.168457V78.143H272.168V0.143005Z" fill="white"/>
</mask>
<g mask="url(#mask1_1320_1706)">
<mask id="mask2_1320_1706" style="mask-type:luminance" maskUnits="userSpaceOnUse" x="0" y="0" width="272" height="79">
<path d="M271.589 0H0.748047V78.2859H271.589V0Z" fill="white"/>
</mask>
<g mask="url(#mask2_1320_1706)">
<mask id="mask3_1320_1706" style="mask-type:luminance" maskUnits="userSpaceOnUse" x="87" y="24" width="185" height="15">
<mask id="mask4_1320_1706" style="mask-type:luminance" maskUnits="userSpaceOnUse" x="0" y="0" width="272" height="79">
<path d="M271.589 0H0.748047V78.2859H271.589V0Z" fill="white"/>
</mask>
<g mask="url(#mask4_1320_1706)">
<mask id="mask5_1320_1706" style="mask-type:luminance" maskUnits="userSpaceOnUse" x="0" y="0" width="272" height="79">
<path d="M271.589 0H0.748047V78.2859H271.589V0Z" fill="white"/>
</mask>
<g mask="url(#mask5_1320_1706)">
<mask id="mask6_1320_1706" style="mask-type:luminance" maskUnits="userSpaceOnUse" x="87" y="24" width="185" height="30">
<path d="M271.589 24.7177H87.468V53.5682H271.589V24.7177Z" fill="white"/>
</mask>
<g mask="url(#mask6_1320_1706)">
<mask id="mask7_1320_1706" style="mask-type:luminance" maskUnits="userSpaceOnUse" x="87" y="24" width="185" height="30">
<path d="M271.589 24.7177H87.468V53.5682H271.589V24.7177Z" fill="white"/>
</mask>
<g mask="url(#mask7_1320_1706)">
<mask id="mask8_1320_1706" style="mask-type:luminance" maskUnits="userSpaceOnUse" x="87" y="24" width="185" height="15">
<path d="M271.589 24.7177H87.468V38.8874H271.589V24.7177Z" fill="white"/>
</mask>
<g mask="url(#mask8_1320_1706)">
<mask id="mask9_1320_1706" style="mask-type:luminance" maskUnits="userSpaceOnUse" x="87" y="24" width="185" height="15">
<path d="M271.589 24.7177H87.468V38.8874H271.589V24.7177Z" fill="white"/>
</mask>
<g mask="url(#mask9_1320_1706)">
<path d="M92.6487 24.7177C93.6059 24.7177 94.4385 24.8553 95.1465 25.1304C95.8548 25.4056 96.5168 25.8248 97.1332 26.3882L95.8548 27.8623C95.3695 27.456 94.8818 27.1612 94.3914 26.9778C93.8983 26.7944 93.3698 26.7027 92.8059 26.7027C92.1765 26.7027 91.6693 26.8428 91.2836 27.1232C90.8954 27.4063 90.7015 27.8033 90.7015 28.3143C90.7015 28.6548 90.7774 28.9366 90.9297 29.1592C91.079 29.3821 91.3505 29.5916 91.7438 29.7881C92.1374 29.9846 92.7208 30.2009 93.4944 30.4366C94.8318 30.8559 95.839 31.3761 96.5155 31.9971C97.1895 32.6209 97.5265 33.5289 97.5265 34.7211C97.5265 35.5332 97.3206 36.254 96.9091 36.8829C96.4945 37.5118 95.9005 38.0031 95.1269 38.3567C94.3533 38.7106 93.4353 38.8875 92.3732 38.8875C91.3374 38.8875 90.4104 38.7198 89.592 38.3844C88.7714 38.0515 88.0658 37.5968 87.4758 37.0204L88.8133 35.5267C89.3377 35.9721 89.8819 36.3089 90.4458 36.5369C91.0096 36.7676 91.6325 36.8829 92.3142 36.8829C93.0616 36.8829 93.6649 36.7059 94.1238 36.3521C94.5826 35.9985 94.8122 35.5006 94.8122 34.8587C94.8122 34.4654 94.7336 34.1406 94.5761 33.8838C94.4189 33.6297 94.1502 33.4003 93.7699 33.1959C93.3896 32.9943 92.8388 32.782 92.1175 32.5592C90.6751 32.1137 89.6328 31.5767 88.9903 30.9478C88.3476 30.3189 88.0264 29.4932 88.0264 28.4714C88.0264 27.7245 88.223 27.0695 88.6166 26.5061C89.0099 25.9427 89.558 25.5038 90.2608 25.1894C90.961 24.8749 91.7571 24.7177 92.6487 24.7177ZM109.702 38.5926H106.948L106.102 35.4481H101.598L100.752 38.5926H98.0577L102.286 25.0125H105.493L109.702 38.5926ZM103.84 26.9975L102.109 33.4829H105.571L103.84 26.9975ZM118.474 38.5926L115.465 33.1489H113.812V38.5926H111.216V25.0125H115.268C118.861 25.0125 120.657 26.3424 120.657 29.0021C120.657 29.9061 120.434 30.6529 119.989 31.2424C119.543 31.8322 118.848 32.3102 117.904 32.6771L121.464 38.5926H118.474ZM113.812 26.8992V31.2818H115.425C116.252 31.2818 116.877 31.1011 117.302 30.7393C117.729 30.3803 117.943 29.8012 117.943 29.0021C117.943 28.2683 117.723 27.7338 117.282 27.3984C116.844 27.0656 116.152 26.8992 115.205 26.8992H113.812ZM126.574 25.0125C128.685 25.0125 130.374 25.4907 131.64 26.4472C132.904 27.4035 133.537 29.1658 133.537 31.7338C133.537 34.2493 132.914 36.0208 131.668 37.0478C130.422 38.0776 128.842 38.5926 126.928 38.5926H123.23V25.0125H126.574ZM127.026 26.9581H125.826V36.647H127.105C128.259 36.647 129.163 36.2893 129.819 35.574C130.475 34.8611 130.802 33.581 130.802 31.7338C130.802 30.4499 130.636 29.4566 130.303 28.7543C129.967 28.0547 129.528 27.5805 128.985 27.3315C128.44 27.0826 127.787 26.9581 127.026 26.9581ZM141.188 24.7177C142.407 24.7177 143.463 24.9929 144.354 25.5431C145.246 26.0934 145.932 26.8992 146.412 27.9604C146.889 29.0217 147.128 30.2991 147.128 31.7927C147.128 33.2734 146.885 34.5442 146.4 35.6055C145.915 36.6665 145.226 37.4789 144.335 38.0423C143.443 38.6057 142.394 38.8875 141.188 38.8875C139.968 38.8875 138.913 38.6122 138.021 38.0621C137.129 37.5117 136.441 36.7059 135.956 35.6446C135.471 34.5834 135.228 33.306 135.228 31.8123C135.228 30.345 135.471 29.0766 135.956 28.0077C136.441 26.9411 137.133 26.1262 138.033 25.5628C138.93 24.9994 139.981 24.7177 141.188 24.7177ZM141.188 26.7027C140.139 26.7027 139.339 27.1114 138.788 27.9289C138.237 28.7491 137.962 30.0436 137.962 31.8123C137.962 35.2057 139.037 36.9024 141.188 36.9024C142.237 36.9024 143.034 36.4964 143.579 35.684C144.122 34.8717 144.394 33.5745 144.394 31.7927C144.394 30.024 144.122 28.7334 143.579 27.921C143.034 27.1088 142.237 26.7027 141.188 26.7027ZM156.824 38.5926L153.815 33.1489H152.163V38.5926H149.567V25.0125H153.618C157.211 25.0125 159.008 26.3424 159.008 29.0021C159.008 29.9061 158.785 30.6529 158.339 31.2424C157.893 31.8322 157.198 32.3102 156.254 32.6771L159.814 38.5926H156.824ZM152.163 26.8992V31.2818H153.776C154.602 31.2818 155.227 31.1011 155.652 30.7393C156.08 30.3803 156.293 29.8012 156.293 29.0021C156.293 28.2683 156.073 27.7338 155.632 27.3984C155.195 27.0656 154.504 26.8992 153.56 26.8992H152.163ZM168.252 31.3998C169.183 31.5699 169.933 31.9042 170.502 32.4021C171.074 32.9 171.36 33.6599 171.36 34.6817C171.36 36.0966 170.862 37.103 169.865 37.7004C168.869 38.2953 167.472 38.5926 165.676 38.5926H161.584V25.0125H165.144C168.895 25.0125 170.77 26.1655 170.77 28.4714C170.77 29.2707 170.527 29.9218 170.042 30.4249C169.557 30.9307 168.96 31.2554 168.252 31.3998ZM165.4 26.9188H164.181V30.5939H165.774C166.495 30.5939 167.065 30.4328 167.485 30.1104C167.905 29.7908 168.115 29.3166 168.115 28.6877C168.115 28.0324 167.894 27.574 167.454 27.312C167.016 27.0499 166.331 26.9188 165.4 26.9188ZM165.695 36.647C166.652 36.647 167.383 36.5029 167.886 36.2146C168.393 35.9265 168.646 35.3826 168.646 34.5834C168.646 33.8104 168.406 33.2535 167.926 32.913C167.448 32.5722 166.797 32.4021 165.971 32.4021H164.181V36.647H165.695ZM173.638 25.0125H181.525L181.249 26.9385H176.234V30.7315H180.6V32.6575H176.234V36.647H181.603V38.5926H173.638V25.0125ZM184.062 25.0125H186.658V38.5926H184.062V25.0125ZM191.477 25.0125H194.29L189.589 31.1639L194.664 38.5926H191.576L186.777 31.3408L191.477 25.0125ZM204.95 24.7177C205.908 24.7177 206.74 24.8553 207.449 25.1304C208.157 25.4056 208.819 25.8248 209.435 26.3882L208.157 27.8623C207.671 27.456 207.182 27.1612 206.689 26.9778C206.199 26.7944 205.672 26.7027 205.108 26.7027C204.479 26.7027 203.97 26.8428 203.581 27.1232C203.196 27.4063 203.003 27.8033 203.003 28.3143C203.003 28.6548 203.078 28.9366 203.228 29.1592C203.38 29.3821 203.652 29.5916 204.046 29.7881C204.439 29.9846 205.023 30.2009 205.796 30.4366C207.134 30.8559 208.139 31.3761 208.813 31.9971C209.49 32.6209 209.829 33.5289 209.829 34.7211C209.829 35.5332 209.621 36.254 209.207 36.8829C208.795 37.5118 208.202 38.0031 207.429 38.3567C206.655 38.7106 205.737 38.8875 204.675 38.8875C203.639 38.8875 202.711 38.7198 201.89 38.3844C201.072 38.0515 200.368 37.5968 199.778 37.0204L201.115 35.5267C201.64 35.9721 202.184 36.3089 202.748 36.5369C203.311 36.7676 203.934 36.8829 204.616 36.8829C205.364 36.8829 205.967 36.7059 206.426 36.3521C206.885 35.9985 207.114 35.5006 207.114 34.8587C207.114 34.4654 207.035 34.1406 206.878 33.8838C206.721 33.6297 206.452 33.4003 206.072 33.1959C205.691 32.9943 205.141 32.782 204.42 32.5592C202.977 32.1137 201.935 31.5767 201.292 30.9478C200.65 30.3189 200.328 29.4932 200.328 28.4714C200.328 27.7245 200.525 27.0695 200.918 26.5061C201.312 25.9427 201.859 25.5038 202.559 25.1894C203.262 24.8749 204.059 24.7177 204.95 24.7177ZM212.047 25.0125H214.643V38.5926H212.047V25.0125ZM221.173 25.0125C223.285 25.0125 224.973 25.4907 226.24 26.4472C227.504 27.4035 228.136 29.1658 228.136 31.7338C228.136 34.2493 227.513 36.0208 226.268 37.0478C225.022 38.0776 223.442 38.5926 221.527 38.5926H217.83V25.0125H221.173ZM221.626 26.9581H220.426V36.647H221.705C222.858 36.647 223.763 36.2893 224.419 35.574C225.074 34.8611 225.402 33.581 225.402 31.7338C225.402 30.4499 225.234 29.4566 224.899 28.7543C224.566 28.0547 224.128 27.5805 223.585 27.3315C223.039 27.0826 222.386 26.9581 221.626 26.9581ZM230.575 25.0125H233.172V38.5926H230.575V25.0125ZM236.354 25.0125H238.95V38.5926H236.354V25.0125ZM243.769 25.0125H246.582L241.885 31.1639L246.955 38.5926H243.867L239.068 31.3408L243.769 25.0125ZM253.623 24.7177C254.843 24.7177 255.898 24.9929 256.79 25.5431C257.682 26.0934 258.367 26.8992 258.847 27.9604C259.325 29.0217 259.563 30.2991 259.563 31.7927C259.563 33.2734 259.321 34.5442 258.836 35.6055C258.35 36.6665 257.662 37.4789 256.77 38.0423C255.879 38.6057 254.83 38.8875 253.623 38.8875C252.404 38.8875 251.348 38.6122 250.457 38.0621C249.565 37.5117 248.877 36.7059 248.391 35.6446C247.906 34.5834 247.664 33.306 247.664 31.8123C247.664 30.345 247.906 29.0766 248.391 28.0077C248.877 26.9411 249.569 26.1262 250.468 25.5628C251.365 24.9994 252.417 24.7177 253.623 24.7177ZM253.623 26.7027C252.574 26.7027 251.774 27.1114 251.224 27.9289C250.673 28.7491 250.398 30.0436 250.398 31.8123C250.398 35.2057 251.473 36.9024 253.623 36.9024C254.672 36.9024 255.47 36.4964 256.015 35.684C256.558 34.8717 256.829 33.5745 256.829 31.7927C256.829 30.024 256.558 28.7334 256.015 27.921C255.47 27.1088 254.672 26.7027 253.623 26.7027ZM268.926 25.0125H271.581L267.549 38.5926H264.461L260.311 25.0125H263.104L266.054 36.2931L268.926 25.0125Z" fill="white"/>
</g>
</g>
</g>
</g>
</g>
</g>
</mask>
<g mask="url(#mask3_1320_1706)">
<path d="M271.589 0H0.748047V78.2859H271.589V0Z" fill="url(#paint0_linear_1320_1706)"/>
</g>
<mask id="mask10_1320_1706" style="mask-type:luminance" maskUnits="userSpaceOnUse" x="87" y="42" width="105" height="12">
<mask id="mask11_1320_1706" style="mask-type:luminance" maskUnits="userSpaceOnUse" x="0" y="0" width="272" height="79">
<path d="M271.589 0H0.748047V78.2859H271.589V0Z" fill="white"/>
</mask>
<g mask="url(#mask11_1320_1706)">
<mask id="mask12_1320_1706" style="mask-type:luminance" maskUnits="userSpaceOnUse" x="0" y="0" width="272" height="79">
<path d="M271.589 0H0.748047V78.2859H271.589V0Z" fill="white"/>
</mask>
<g mask="url(#mask12_1320_1706)">
<mask id="mask13_1320_1706" style="mask-type:luminance" maskUnits="userSpaceOnUse" x="87" y="24" width="185" height="30">
<path d="M271.589 24.7177H87.468V53.5682H271.589V24.7177Z" fill="white"/>
</mask>
<g mask="url(#mask13_1320_1706)">
<mask id="mask14_1320_1706" style="mask-type:luminance" maskUnits="userSpaceOnUse" x="87" y="24" width="185" height="30">
<path d="M271.589 24.7177H87.468V53.5682H271.589V24.7177Z" fill="white"/>
</mask>
<g mask="url(#mask14_1320_1706)">
<mask id="mask15_1320_1706" style="mask-type:luminance" maskUnits="userSpaceOnUse" x="87" y="42" width="105" height="12">
<path d="M191.672 42.2325H87.468V53.5683H191.672V42.2325Z" fill="white"/>
</mask>
<g mask="url(#mask15_1320_1706)">
<mask id="mask16_1320_1706" style="mask-type:luminance" maskUnits="userSpaceOnUse" x="87" y="42" width="105" height="12">
<path d="M191.672 42.2325H87.468V53.5683H191.672V42.2325Z" fill="white"/>
</mask>
<g mask="url(#mask16_1320_1706)">
<path d="M89.0119 51.0286H87.4729V42.9783H92.0319L91.8687 44.12H89.0119V46.5315H91.4955V47.6732H89.0119V51.0286ZM96.1712 44.7024C96.3964 44.7024 96.6026 44.7296 96.7892 44.784L96.5327 46.2285C96.3461 46.182 96.1633 46.1586 95.9846 46.1586C95.6193 46.1586 95.3315 46.2885 95.1218 46.5478C94.9118 46.8087 94.7448 47.2071 94.6202 47.7431V51.0286H93.1278V44.8655H94.4222L94.562 46.0771C94.7097 45.6343 94.9235 45.2944 95.2034 45.0566C95.4833 44.8204 95.8059 44.7024 96.1712 44.7024ZM100.24 44.6907C101.15 44.6907 101.859 44.9796 102.367 45.5574C102.877 46.1369 103.132 46.9315 103.132 47.9412C103.132 48.5858 103.016 49.1544 102.782 49.6469C102.549 50.1407 102.215 50.5236 101.78 50.7954C101.344 51.0674 100.827 51.2033 100.229 51.2033C99.3193 51.2033 98.608 50.9136 98.095 50.3342C97.5821 49.7564 97.3256 48.9587 97.3256 47.9412C97.3256 47.2965 97.442 46.7296 97.6753 46.2401C97.9085 45.7509 98.2444 45.3705 98.6826 45.0984C99.1227 44.8266 99.6419 44.6907 100.24 44.6907ZM100.24 45.8208C99.3465 45.8208 98.8996 46.5277 98.8996 47.9412C98.8996 48.6712 99.0098 49.2088 99.2307 49.5536C99.4529 49.8999 99.7858 50.0733 100.229 50.0733C100.672 50.0733 101.004 49.8985 101.224 49.549C101.447 49.1995 101.558 48.6636 101.558 47.9412C101.558 47.2188 101.447 46.6845 101.224 46.338C101.004 45.9934 100.676 45.8208 100.24 45.8208ZM107.817 44.6907C108.369 44.6907 108.799 44.8554 109.107 45.1848C109.413 45.5156 109.566 45.9762 109.566 46.5665V51.0286H108.074V46.7995C108.074 46.4345 108.01 46.1782 107.882 46.0306C107.753 45.883 107.564 45.8091 107.316 45.8091C107.059 45.8091 106.828 45.8885 106.623 46.0469C106.416 46.2067 106.216 46.4383 106.021 46.7413V51.0286H104.529V44.8655H105.823L105.94 45.6694C106.445 45.0169 107.071 44.6907 107.817 44.6907ZM114.311 49.7819L114.836 50.7372C114.619 50.8927 114.376 51.009 114.109 51.0867C113.84 51.1645 113.565 51.2033 113.285 51.2033C112.679 51.1954 112.219 51.0223 111.905 50.6837C111.589 50.3467 111.431 49.848 111.431 49.1878V45.9374H110.464V44.8655H111.431V43.5025L112.924 43.3278V44.8655H114.358L114.207 45.9374H112.924V49.1528C112.924 49.4558 112.977 49.6732 113.083 49.8053C113.187 49.9374 113.352 50.0032 113.577 50.0032C113.803 50.0032 114.047 49.9295 114.311 49.7819ZM120.736 47.8015C120.736 47.879 120.724 48.0809 120.701 48.4073H116.83C116.877 49.0052 117.032 49.4324 117.296 49.6887C117.561 49.945 117.911 50.0733 118.346 50.0733C118.618 50.0733 118.874 50.029 119.115 49.9404C119.356 49.8502 119.613 49.7121 119.885 49.5257L120.503 50.376C119.819 50.9275 119.057 51.2033 118.218 51.2033C117.277 51.2033 116.552 50.9158 116.042 50.3413C115.534 49.7664 115.279 48.9818 115.279 47.9877C115.279 47.3588 115.388 46.7932 115.606 46.2915C115.823 45.7914 116.138 45.399 116.55 45.1147C116.962 44.8321 117.452 44.6907 118.019 44.6907C118.882 44.6907 119.551 44.9641 120.025 45.511C120.499 46.0591 120.736 46.8228 120.736 47.8015ZM119.255 47.4403V47.3702C119.255 46.2907 118.855 45.7509 118.054 45.7509C117.689 45.7509 117.403 45.8844 117.196 46.1518C116.991 46.4203 116.869 46.85 116.83 47.4403H119.255ZM125.365 44.6907C125.917 44.6907 126.346 44.8554 126.652 45.1848C126.96 45.5156 127.114 45.9762 127.114 46.5665V51.0286H125.622V46.7995C125.622 46.4345 125.557 46.1782 125.428 46.0306C125.3 45.883 125.113 45.8091 124.864 45.8091C124.607 45.8091 124.376 45.8885 124.169 46.0469C123.964 46.2067 123.764 46.4383 123.569 46.7413V51.0286H122.077V44.8655H123.371L123.488 45.6694C123.993 45.0169 124.619 44.6907 125.365 44.6907ZM132.545 42.2325L134.038 42.3956V51.0286H132.72L132.615 50.248C132.421 50.5432 132.174 50.7761 131.876 50.947C131.576 51.1177 131.236 51.2033 130.854 51.2033C130.1 51.2033 129.521 50.912 129.117 50.3296C128.713 49.7469 128.511 48.9546 128.511 47.9529C128.511 47.3237 128.612 46.7622 128.814 46.2681C129.016 45.7757 129.306 45.3897 129.684 45.1101C130.06 44.8304 130.497 44.6907 130.995 44.6907C131.585 44.6907 132.102 44.912 132.545 45.3547V42.2325ZM131.274 50.0733C131.539 50.0733 131.772 50.0086 131.974 49.8798C132.176 49.7523 132.367 49.5528 132.545 49.281V46.4616C132.367 46.2442 132.186 46.0812 132.004 45.9722C131.821 45.8635 131.608 45.8091 131.368 45.8091C130.971 45.8091 130.659 45.9855 130.43 46.338C130.2 46.6924 130.085 47.2267 130.085 47.9412C130.085 48.7024 130.186 49.2476 130.388 49.577C130.59 49.9078 130.886 50.0733 131.274 50.0733ZM142.444 42.2325L143.937 42.3956V51.0286H142.619L142.515 50.248C142.32 50.5432 142.073 50.7761 141.773 50.947C141.474 51.1177 141.135 51.2033 140.754 51.2033C140 51.2033 139.421 50.912 139.016 50.3296C138.612 49.7469 138.41 48.9546 138.41 47.9529C138.41 47.3237 138.511 46.7622 138.713 46.2681C138.915 45.7757 139.205 45.3897 139.581 45.1101C139.959 44.8304 140.396 44.6907 140.894 44.6907C141.484 44.6907 142.001 44.912 142.444 45.3547V42.2325ZM141.174 50.0733C141.438 50.0733 141.671 50.0086 141.873 49.8798C142.075 49.7523 142.266 49.5528 142.444 49.281V46.4616C142.266 46.2442 142.085 46.0812 141.901 45.9722C141.719 45.8635 141.508 45.8091 141.267 45.8091C140.87 45.8091 140.557 45.9855 140.327 46.338C140.098 46.6924 139.984 47.2267 139.984 47.9412C139.984 48.7024 140.085 49.2476 140.287 49.577C140.49 49.9078 140.785 50.0733 141.174 50.0733ZM150.793 47.8015C150.793 47.879 150.781 48.0809 150.758 48.4073H146.887C146.933 49.0052 147.089 49.4324 147.353 49.6887C147.618 49.945 147.967 50.0733 148.403 50.0733C148.675 50.0733 148.931 50.029 149.172 49.9404C149.413 49.8502 149.67 49.7121 149.942 49.5257L150.56 50.376C149.876 50.9275 149.114 51.2033 148.274 51.2033C147.334 51.2033 146.609 50.9158 146.099 50.3413C145.59 49.7664 145.336 48.9818 145.336 47.9877C145.336 47.3588 145.445 46.7932 145.663 46.2915C145.88 45.7914 146.195 45.399 146.607 45.1147C147.019 44.8321 147.509 44.6907 148.076 44.6907C148.939 44.6907 149.608 44.9641 150.082 45.511C150.556 46.0591 150.793 46.8228 150.793 47.8015ZM149.312 47.4403V47.3702C149.312 46.2907 148.912 45.7509 148.111 45.7509C147.746 45.7509 147.46 45.8844 147.253 46.1518C147.048 46.4203 146.926 46.85 146.887 47.4403H149.312ZM155.548 44.8655H157.087L155.082 51.0286H153.297L151.257 44.8655H152.878L154.195 49.8284L155.548 44.8655ZM163.069 47.8015C163.069 47.879 163.057 48.0809 163.033 48.4073H159.162C159.209 49.0052 159.364 49.4324 159.629 49.6887C159.893 49.945 160.243 50.0733 160.678 50.0733C160.95 50.0733 161.207 50.029 161.448 49.9404C161.689 49.8502 161.945 49.7121 162.217 49.5257L162.835 50.376C162.151 50.9275 161.389 51.2033 160.55 51.2033C159.609 51.2033 158.885 50.9158 158.377 50.3413C157.867 49.7664 157.612 48.9818 157.612 47.9877C157.612 47.3588 157.72 46.7932 157.938 46.2915C158.156 45.7914 158.471 45.399 158.883 45.1147C159.295 44.8321 159.784 44.6907 160.352 44.6907C161.215 44.6907 161.883 44.9641 162.357 45.511C162.831 46.0591 163.069 46.8228 163.069 47.8015ZM161.588 47.4403V47.3702C161.588 46.2907 161.187 45.7509 160.387 45.7509C160.021 45.7509 159.736 45.8844 159.531 46.1518C159.324 46.4203 159.201 46.85 159.162 47.4403H161.588ZM165.867 51.2033C165.393 51.2033 165.021 51.065 164.752 50.7886C164.485 50.5136 164.351 50.1236 164.351 49.6189V42.3956L165.843 42.2325V49.5721C165.843 49.8597 165.96 50.0032 166.193 50.0032C166.31 50.0032 166.427 49.9839 166.543 49.945L166.858 50.9935C166.547 51.1335 166.217 51.2033 165.867 51.2033ZM170.365 44.6907C171.276 44.6907 171.986 44.9796 172.494 45.5574C173.004 46.1369 173.259 46.9315 173.259 47.9412C173.259 48.5858 173.143 49.1544 172.909 49.6469C172.676 50.1407 172.342 50.5236 171.907 50.7954C171.47 51.0674 170.953 51.2033 170.356 51.2033C169.446 51.2033 168.734 50.9136 168.22 50.3342C167.707 49.7564 167.45 48.9587 167.45 47.9412C167.45 47.2965 167.567 46.7296 167.8 46.2401C168.033 45.7509 168.37 45.3705 168.81 45.0984C169.25 44.8266 169.768 44.6907 170.365 44.6907ZM170.365 45.8208C169.471 45.8208 169.024 46.5277 169.024 47.9412C169.024 48.6712 169.135 49.2088 169.358 49.5536C169.58 49.8999 169.913 50.0733 170.356 50.0733C170.797 50.0733 171.129 49.8985 171.352 49.549C171.574 49.1995 171.685 48.6636 171.685 47.9412C171.685 47.2188 171.574 46.6845 171.352 46.338C171.129 45.9934 170.8 45.8208 170.365 45.8208ZM177.851 44.6907C178.628 44.6907 179.203 44.9742 179.576 45.5411C179.95 46.1083 180.136 46.9044 180.136 47.9295C180.136 48.5665 180.041 49.131 179.852 49.6235C179.66 50.1176 179.381 50.5043 179.012 50.784C178.642 51.0634 178.204 51.2033 177.699 51.2033C177.046 51.2033 176.53 50.978 176.148 50.5274V53.4053L174.656 53.5683V44.8655H175.962L176.043 45.6227C176.284 45.312 176.561 45.0791 176.871 44.9237C177.182 44.7685 177.509 44.6907 177.851 44.6907ZM177.279 50.0616C178.142 50.0616 178.574 49.3547 178.574 47.9412C178.574 47.1878 178.477 46.644 178.282 46.3103C178.088 45.9762 177.796 45.8091 177.408 45.8091C177.159 45.8091 176.926 45.8844 176.708 46.0352C176.491 46.1874 176.304 46.3918 176.148 46.6481V49.4207C176.436 49.848 176.813 50.0616 177.279 50.0616ZM186.666 47.8015C186.666 47.879 186.654 48.0809 186.631 48.4073H182.76C182.806 49.0052 182.962 49.4324 183.226 49.6887C183.49 49.945 183.84 50.0733 184.276 50.0733C184.548 50.0733 184.804 50.029 185.045 49.9404C185.286 49.8502 185.543 49.7121 185.814 49.5257L186.432 50.376C185.748 50.9275 184.987 51.2033 184.147 51.2033C183.207 51.2033 182.482 50.9158 181.974 50.3413C181.464 49.7664 181.209 48.9818 181.209 47.9877C181.209 47.3588 181.318 46.7932 181.535 46.2915C181.753 45.7914 182.068 45.399 182.48 45.1147C182.892 44.8321 183.381 44.6907 183.949 44.6907C184.812 44.6907 185.48 44.9641 185.955 45.511C186.429 46.0591 186.666 46.8228 186.666 47.8015ZM185.185 47.4403V47.3702C185.185 46.2907 184.785 45.7509 183.984 45.7509C183.619 45.7509 183.333 45.8844 183.128 46.1518C182.921 46.4203 182.799 46.85 182.76 47.4403H185.185ZM191.05 44.7024C191.275 44.7024 191.481 44.7296 191.668 44.784L191.411 46.2285C191.225 46.182 191.042 46.1586 190.863 46.1586C190.498 46.1586 190.21 46.2885 190 46.5478C189.791 46.8087 189.623 47.2071 189.499 47.7431V51.0286H188.007V44.8655H189.301L189.441 46.0771C189.589 45.6343 189.802 45.2944 190.082 45.0566C190.362 44.8204 190.684 44.7024 191.05 44.7024Z" fill="white"/>
</g>
</g>
</g>
</g>
</g>
</g>
</mask>
<g mask="url(#mask10_1320_1706)">
<path d="M271.589 0H0.748047V78.2859H271.589V0Z" fill="url(#paint1_linear_1320_1706)"/>
</g>
<mask id="mask17_1320_1706" style="mask-type:luminance" maskUnits="userSpaceOnUse" x="1" y="4" width="68" height="70">
<mask id="mask18_1320_1706" style="mask-type:luminance" maskUnits="userSpaceOnUse" x="0" y="0" width="272" height="79">
<path d="M271.589 0H0.748047V78.2859H271.589V0Z" fill="white"/>
</mask>
<g mask="url(#mask18_1320_1706)">
<mask id="mask19_1320_1706" style="mask-type:luminance" maskUnits="userSpaceOnUse" x="0" y="0" width="272" height="79">
<path d="M271.589 0H0.748047V78.2859H271.589V0Z" fill="white"/>
</mask>
<g mask="url(#mask19_1320_1706)">
<mask id="mask20_1320_1706" style="mask-type:luminance" maskUnits="userSpaceOnUse" x="0" y="4" width="70" height="70">
<path d="M69.1494 4.89198H0.877441V73.108H69.1494V4.89198Z" fill="white"/>
</mask>
<g mask="url(#mask20_1320_1706)">
<mask id="mask21_1320_1706" style="mask-type:luminance" maskUnits="userSpaceOnUse" x="0" y="4" width="70" height="70">
<path d="M69.1494 4.89198H0.877441V73.108H69.1494V4.89198Z" fill="white"/>
</mask>
<g mask="url(#mask21_1320_1706)">
<mask id="mask22_1320_1706" style="mask-type:luminance" maskUnits="userSpaceOnUse" x="0" y="6" width="70" height="68">
<path d="M69.1494 6.09297H0.877441V73.108H69.1494V6.09297Z" fill="white"/>
</mask>
<g mask="url(#mask22_1320_1706)">
<mask id="mask23_1320_1706" style="mask-type:luminance" maskUnits="userSpaceOnUse" x="0" y="6" width="70" height="68">
<path d="M69.1494 6.09297H0.877441V73.108H69.1494V6.09297Z" fill="white"/>
</mask>
<g mask="url(#mask23_1320_1706)">
<path d="M8.07153 49.0011L8.39554 49.9586L4.05692 49.9879L3.68042 48.8747L7.16583 46.3257L7.5077 47.3351L4.63416 49.1854L8.07153 49.0011Z" fill="white"/>
<path d="M8.75412 50.7511L9.16155 51.6452L5.39495 53.2998L4.98755 52.4057L8.75412 50.7511ZM10.8646 50.3508C10.9413 50.5193 10.9495 50.6796 10.8884 50.8313C10.8307 50.9843 10.7242 51.0949 10.5681 51.1634C10.4102 51.233 10.2549 51.2373 10.1026 51.1762C9.95144 51.1177 9.83709 51.0041 9.76039 50.8359C9.68665 50.6739 9.67735 50.5171 9.73245 50.3652C9.78868 50.2151 9.89595 50.1056 10.0542 50.036C10.2099 49.9678 10.3648 49.9624 10.5186 50.02C10.6754 50.079 10.7909 50.1893 10.8646 50.3508Z" fill="white"/>
<path d="M10.624 53.9056C10.9112 54.3739 11.0221 54.8677 10.957 55.3882L10.2568 55.3553C10.265 54.9452 10.1823 54.5986 10.0092 54.3157C9.90713 54.1494 9.79542 54.038 9.67438 53.982C9.5526 53.9293 9.43863 53.9342 9.33288 53.9969C9.25242 54.0445 9.1977 54.1037 9.16865 54.1747C9.13772 54.2467 9.13103 54.3486 9.14816 54.4802C9.16416 54.6095 9.20512 54.7924 9.27179 55.0278C9.39879 55.4656 9.43417 55.8246 9.37792 56.1043C9.31947 56.3856 9.13848 56.6158 8.83534 56.7949C8.4834 57.0028 8.12177 57.0251 7.75049 56.8623C7.3803 56.7008 7.06747 56.4125 6.81239 55.9964C6.63883 55.7135 6.52562 55.4278 6.47236 55.1387C6.41837 54.853 6.4165 54.5793 6.46679 54.3171L7.20638 54.4497C7.15835 54.8892 7.23508 55.2735 7.43655 55.602C7.55125 55.7893 7.68121 55.9165 7.82684 55.9836C7.97059 56.0488 8.10951 56.0423 8.24281 55.9632C8.34449 55.9032 8.41412 55.8352 8.45138 55.7591C8.48527 55.6825 8.49235 55.5765 8.4726 55.4406C8.45397 55.3066 8.40854 55.1058 8.33592 54.8367C8.21637 54.4253 8.19366 54.0842 8.26778 53.814C8.34152 53.5436 8.50983 53.3308 8.77275 53.1756C8.96791 53.0604 9.17795 53.0126 9.40401 53.0321C9.62857 53.0498 9.84791 53.1343 10.0617 53.2854C10.2758 53.4368 10.4631 53.6434 10.624 53.9056Z" fill="white"/>
<path d="M11.9886 56.1578L12.5874 56.9419L9.28522 59.3713L8.68677 58.5872L11.9886 56.1578ZM13.9571 55.3107C14.07 55.4583 14.1136 55.6129 14.0886 55.7738C14.0666 55.9355 13.9877 56.0668 13.851 56.1673C13.7125 56.2692 13.562 56.3068 13.3997 56.2809C13.2388 56.2565 13.1021 56.1706 12.9892 56.0227C12.8809 55.8809 12.8366 55.73 12.8567 55.5694C12.8779 55.4112 12.958 55.2811 13.0965 55.1791C13.2332 55.0786 13.3829 55.0397 13.5456 55.0628C13.7117 55.0862 13.8492 55.1688 13.9571 55.3107Z" fill="white"/>
<path d="M14.7869 59.0754C15.2118 59.5029 15.404 59.97 15.3641 60.4761C15.3224 60.9805 15.0599 61.4637 14.5765 61.9266C14.2681 62.2214 13.9411 62.4277 13.5948 62.5451C13.2503 62.6609 12.9118 62.6799 12.5785 62.6022C12.2437 62.5223 11.9364 62.3416 11.6564 62.0597C11.2315 61.632 11.0382 61.164 11.0765 60.6563C11.1145 60.1486 11.3775 59.6616 11.8646 59.1955C12.1748 58.899 12.501 58.6935 12.8436 58.5791C13.1896 58.4652 13.5292 58.4486 13.8626 58.5302C14.1992 58.6117 14.5072 58.7933 14.7869 59.0754ZM14.2447 59.5936C13.8268 59.1729 13.2786 59.2868 12.6001 59.9361C12.2511 60.2698 12.0452 60.5688 11.9822 60.8324C11.9193 61.096 11.9915 61.3322 12.1986 61.5409C12.4057 61.7496 12.6455 61.8257 12.9174 61.7689C13.1892 61.7124 13.498 61.5186 13.8436 61.1882C14.1907 60.8558 14.3951 60.559 14.4562 60.297C14.5191 60.0334 14.4487 59.7986 14.2447 59.5936Z" fill="white"/>
<path d="M18.7528 62.366C19.0477 62.5832 19.2105 62.8395 19.2414 63.1352C19.2738 63.4289 19.171 63.7314 18.9334 64.0423L17.1421 66.3886L16.3432 65.8007L18.0415 63.5771C18.1882 63.3846 18.2567 63.2243 18.2466 63.0952C18.2388 62.968 18.1673 62.8547 18.0329 62.756C17.8962 62.6555 17.7405 62.606 17.5659 62.6082C17.3931 62.6117 17.1935 62.6547 16.9671 62.7367L15.2446 64.9925L14.4458 64.4049L16.9205 61.1637L17.6124 61.673L17.3521 62.1413C17.8858 61.9967 18.3528 62.0717 18.7528 62.366Z" fill="white"/>
<path d="M19.6391 66.5008C19.7985 66.5892 19.9017 66.7137 19.949 66.8732C19.997 67.0368 19.9765 67.1952 19.8879 67.3496C19.8391 67.4341 19.7754 67.5129 19.6961 67.5863C19.6172 67.6597 19.5065 67.7478 19.365 67.8508L18.3532 68.5946L17.8232 68.3008L18.7617 67.3069C18.6671 67.1205 18.6764 66.9292 18.7897 66.7324C18.876 66.5824 19.0008 66.4843 19.1639 66.4378C19.3278 66.3949 19.4864 66.4161 19.6391 66.5008Z" fill="white"/>
<path d="M25.6224 69.3178L25.7464 70.0228C25.5743 70.0723 25.3956 70.0937 25.2094 70.0869C25.0217 70.0769 24.8392 70.0418 24.6616 69.9815C24.2806 69.8445 24.0277 69.6377 23.9026 69.3613C23.7775 69.0849 23.7875 68.7414 23.9324 68.3307L24.6455 66.3103L24.0351 66.1027L24.2698 65.4385L24.8798 65.6458L25.1785 64.799L26.1609 65.0096L25.8231 65.9668L26.7314 66.2753L26.3985 66.9061L25.5885 66.631L24.8842 68.6272C24.818 68.8156 24.8038 68.9623 24.8426 69.0681C24.8787 69.173 24.9684 69.2499 25.1111 69.298C25.2537 69.3466 25.4243 69.3531 25.6224 69.3178Z" fill="white"/>
<path d="M29.461 66.7723C30.0567 66.8955 30.4816 67.1778 30.7356 67.62C30.9872 68.0617 31.0435 68.6068 30.9042 69.2556C30.8156 69.6689 30.6611 70.0193 30.4402 70.3063C30.2202 70.5905 29.9493 70.7917 29.6283 70.9091C29.3052 71.0259 28.9472 71.0439 28.555 70.9626C27.9596 70.8395 27.5336 70.5568 27.2769 70.1144C27.0204 69.6717 26.9623 69.1235 27.1023 68.4704C27.1913 68.0543 27.3458 67.7056 27.5654 67.423C27.7882 67.139 28.0608 66.9398 28.3842 66.8253C28.71 66.709 29.0691 66.6911 29.461 66.7723ZM29.3052 67.4994C28.7193 67.3784 28.3287 67.7728 28.1334 68.6832C28.033 69.1515 28.0314 69.5119 28.129 69.7654C28.2261 70.019 28.4203 70.1758 28.7111 70.2356C29.0016 70.2957 29.2437 70.228 29.4373 70.032C29.631 69.8364 29.7773 69.5067 29.8766 69.0433C29.9765 68.5775 29.9778 68.2193 29.8796 67.9682C29.7825 67.7149 29.5908 67.5586 29.3052 67.4994Z" fill="white"/>
<path d="M35.7564 66.9004L35.9721 67.6931C35.7039 67.7722 35.3038 67.801 34.7723 67.7796C35.0222 67.9038 35.2056 68.0511 35.322 68.2207C35.4365 68.3908 35.4882 68.6006 35.4773 68.8506C35.4661 69.1175 35.3905 69.3502 35.2513 69.5488C35.1096 69.7472 34.9099 69.8994 34.6529 70.0057C34.3958 70.1144 34.098 70.1617 33.7591 70.1478C33.5736 70.1402 33.4112 70.1133 33.2725 70.0663C33.1555 70.137 33.0943 70.2343 33.0891 70.3576C33.0813 70.5471 33.2428 70.6484 33.5741 70.662L34.2081 70.6876C34.5073 70.6995 34.7682 70.7588 34.9918 70.865C35.2126 70.971 35.3824 71.1145 35.501 71.2939C35.6171 71.476 35.6704 71.6763 35.6614 71.8948C35.6443 72.3025 35.4539 72.6131 35.0913 72.827C34.7282 73.0384 34.2141 73.1306 33.5494 73.1034C33.0723 73.0841 32.6988 73.0205 32.4285 72.9123C32.1608 72.8042 31.9737 72.6566 31.8676 72.4704C31.7618 72.2813 31.7145 72.0437 31.7264 71.757L32.6202 71.7932C32.6142 71.9367 32.6365 72.0503 32.6877 72.1351C32.7385 72.2174 32.8351 72.2821 32.9765 72.3291C33.1182 72.3764 33.3236 72.4052 33.5929 72.4161C33.9737 72.4316 34.2441 72.3965 34.4034 72.3106C34.5631 72.2247 34.6466 72.0956 34.6537 71.9233C34.6599 71.7706 34.6055 71.6494 34.4908 71.5594C34.3733 71.4695 34.2008 71.42 33.9731 71.411L33.3505 71.3858C32.9599 71.37 32.6689 71.2852 32.4771 71.1314C32.2859 70.9751 32.1945 70.7843 32.2043 70.5587C32.2103 70.4155 32.2593 70.2791 32.3515 70.1495C32.4434 70.0217 32.5666 69.9152 32.7217 69.8288C32.4771 69.6901 32.2995 69.526 32.1885 69.3371C32.0803 69.1455 32.0313 68.9199 32.0428 68.6601C32.055 68.369 32.1388 68.1157 32.2935 67.9013C32.4486 67.6888 32.6572 67.5284 32.9194 67.4197C33.1814 67.3091 33.4784 67.2599 33.8094 67.2735C34.2465 67.301 34.6001 67.2838 34.8699 67.2221C35.1425 67.1577 35.4379 67.0507 35.7564 66.9006V66.9004ZM33.8001 67.9404C33.5752 67.9312 33.3968 67.9945 33.2646 68.1302C33.1299 68.2658 33.0579 68.4511 33.0481 68.6865C33.038 68.9292 33.0954 69.1249 33.2202 69.2732C33.3426 69.4216 33.5189 69.5005 33.7487 69.5097C33.9884 69.5195 34.1733 69.4562 34.3028 69.3205C34.432 69.1874 34.5025 68.992 34.5133 68.7351C34.5348 68.2255 34.2968 67.9608 33.8001 67.9404Z" fill="white"/>
<path d="M40.321 68.9803C40.3262 69.0311 40.333 69.1634 40.3403 69.3776L37.7639 69.639C37.8374 70.0271 37.9699 70.2957 38.1622 70.4446C38.3572 70.5957 38.5984 70.6568 38.8865 70.6275C39.0685 70.6087 39.2366 70.5615 39.39 70.4845C39.5436 70.4103 39.7052 70.3035 39.8747 70.1644L40.3428 70.6772C39.9258 71.086 39.4378 71.3184 38.8794 71.3752C38.2544 71.4388 37.752 71.2991 37.3728 70.9569C36.9939 70.6147 36.7695 70.1187 36.701 69.4686C36.658 69.0583 36.6915 68.6813 36.8019 68.3378C36.9129 67.997 37.0962 67.7195 37.3524 67.5056C37.6059 67.2917 37.9212 67.1661 38.2976 67.1276C38.8734 67.0691 39.3377 67.2026 39.69 67.5284C40.043 67.8562 40.2533 68.3402 40.321 68.9803ZM39.3103 68.8414L39.3054 68.7979C39.2308 68.0926 38.9281 67.767 38.3966 67.8209C38.1532 67.8456 37.9715 67.9516 37.8523 68.1397C37.7354 68.3296 37.684 68.618 37.697 69.0053L39.3103 68.8414Z" fill="white"/>
<path d="M43.9168 69.4599L44.414 69.9834C44.2979 70.1171 44.1597 70.2313 44.0003 70.3256C43.8379 70.418 43.6649 70.4867 43.483 70.5318C43.0875 70.6218 42.7605 70.5843 42.5016 70.4201C42.2429 70.256 42.0596 69.9633 41.9519 69.5415L41.4223 67.4676L40.7959 67.6217L40.6221 66.9398L41.2485 66.7854L41.0265 65.9165L41.9658 65.5654L42.2168 66.5476L43.149 66.3179L43.2221 67.0246L42.3906 67.2292L42.9139 69.2787C42.9629 69.4716 43.0334 69.6021 43.125 69.6698C43.214 69.7382 43.3315 69.7543 43.4778 69.7184C43.6241 69.6823 43.7705 69.5964 43.9168 69.4599Z" fill="white"/>
<path d="M46.2168 65.0987C46.5568 64.9721 46.8636 64.9756 47.138 65.1099C47.4114 65.2417 47.6178 65.4866 47.7563 65.8453L48.8182 68.5862L47.8847 68.9343L46.8786 66.3367C46.7915 66.1119 46.6901 65.9692 46.5739 65.9086C46.4599 65.8472 46.3248 65.8456 46.1675 65.9046C46.0128 65.9622 45.8882 66.0646 45.7941 66.2111C45.7024 66.3571 45.6306 66.5438 45.5781 66.7713L46.6014 69.4135L45.6682 69.7616L43.6165 64.4636L44.5141 64.0233L45.3091 66.0766C45.4772 65.5879 45.7797 65.2618 46.2168 65.0987Z" fill="white"/>
<path d="M52.3886 64.1524C52.415 64.1962 52.4765 64.3144 52.5739 64.506L50.3394 65.7915C50.5698 66.1152 50.8037 66.3054 51.0417 66.3631C51.283 66.4209 51.5283 66.3783 51.7783 66.2345C51.9363 66.1437 52.0688 66.032 52.1765 65.9002C52.285 65.77 52.3873 65.6072 52.4825 65.4113L53.1249 65.6877C52.9179 66.2291 52.572 66.6392 52.0873 66.9183C51.5452 67.23 51.0295 67.3075 50.5396 67.1499C50.05 66.9928 49.6368 66.6321 49.3003 66.0687C49.0876 65.7127 48.959 65.3559 48.9147 64.9982C48.8719 64.643 48.922 64.3158 49.0645 64.0171C49.2049 63.7195 49.4388 63.4768 49.7655 63.289C50.2649 63.0017 50.7436 62.9343 51.2019 63.0871C51.6613 63.2422 52.0568 63.5972 52.3886 64.1524ZM51.41 64.4367L51.3871 64.3992C51.0218 63.7877 50.6089 63.6143 50.1479 63.8793C49.9366 64.001 49.8161 64.1714 49.787 64.391C49.7608 64.6115 49.8356 64.8952 50.0108 65.2417L51.41 64.4367Z" fill="white"/>
<path d="M53.79 60.5041C53.9089 60.4128 54.0283 60.344 54.1482 60.2975L54.6117 61.149C54.4923 61.2006 54.3862 61.2623 54.2929 61.3344C54.0998 61.4828 54.0024 61.6673 53.9997 61.8885C53.9975 62.1059 54.074 62.3791 54.229 62.7071L55.5868 64.4073L54.8013 65.0115L52.2554 61.8238L52.9356 61.3004L53.5107 61.8665C53.4048 61.5809 53.3766 61.3186 53.4255 61.0805C53.4758 60.8446 53.5971 60.6522 53.79 60.5041Z" fill="white"/>
<path d="M56.2099 58.123C56.468 57.8646 56.7485 57.7401 57.0512 57.7491C57.3521 57.7564 57.6442 57.8964 57.9268 58.1682L60.0595 60.2217L59.3605 60.921L57.339 58.9751C57.1641 58.8066 57.011 58.7188 56.8799 58.7114C56.7504 58.7025 56.6266 58.7568 56.5086 58.8745C56.3892 58.9941 56.3187 59.1392 56.2978 59.3096C56.2785 59.4781 56.2953 59.6779 56.3484 59.9092L58.399 61.8834L57.6999 62.5826L54.7539 59.7466L55.3594 59.1406L55.7981 59.4558C55.7228 58.9172 55.8601 58.4728 56.2099 58.123Z" fill="white"/>
<path d="M61.4116 54.7272C61.454 54.7565 61.5606 54.8381 61.7309 54.9723L60.2496 57.0585C60.5967 57.2574 60.8907 57.3341 61.1311 57.2884C61.3751 57.2419 61.5799 57.1022 61.7453 56.8693C61.85 56.722 61.9229 56.566 61.9643 56.4019C62.0075 56.2394 62.0306 56.0491 62.0339 55.8322L62.7351 55.8192C62.7781 56.3962 62.6388 56.9106 62.3176 57.3629C61.9583 57.8689 61.5231 58.151 61.0109 58.2095C60.4993 58.2682 59.97 58.1103 59.4243 57.7368C59.0794 57.5007 58.8107 57.2294 58.6179 56.9231C58.4272 56.6182 58.3328 56.3005 58.3353 55.9706C58.3358 55.6425 58.4443 55.3262 58.6611 55.0212C58.9921 54.5551 59.3982 54.297 59.8794 54.2478C60.363 54.1994 60.8736 54.3595 61.4116 54.7272ZM60.644 55.3879L60.6075 55.3629C60.0151 54.9577 59.566 54.9699 59.2606 55.4004C59.1205 55.5977 59.0841 55.8021 59.1507 56.0132C59.2212 56.2241 59.4099 56.4508 59.717 56.694L60.644 55.3879Z" fill="white"/>
<path d="M60.7456 51.4928C60.992 51.003 61.356 50.6443 61.8374 50.4173L62.1872 51.0136C61.8309 51.2281 61.5785 51.4833 61.4294 51.7798C61.3418 51.9537 61.3065 52.1062 61.3236 52.2363C61.344 52.3654 61.4101 52.4568 61.5205 52.5106C61.6049 52.5516 61.6851 52.5647 61.7615 52.5505C61.8401 52.5369 61.931 52.4875 62.0346 52.4024C62.1369 52.3192 62.2715 52.1866 62.4374 52.0045C62.7443 51.6632 63.0334 51.4403 63.304 51.336C63.5766 51.2327 63.872 51.2577 64.1889 51.4118C64.5571 51.5901 64.7715 51.8771 64.8321 52.272C64.8939 52.6649 64.815 53.0789 64.596 53.5142C64.447 53.8105 64.2631 54.0583 64.0436 54.2584C63.8276 54.4568 63.5937 54.6062 63.3421 54.706L63.0565 54.0233C63.4594 53.8257 63.7474 53.5553 63.9204 53.2112C64.0191 53.0153 64.0577 52.8391 64.0373 52.6826C64.0159 52.5285 63.9351 52.4176 63.7953 52.35C63.6889 52.2986 63.5932 52.2777 63.5078 52.288C63.4237 52.3016 63.3291 52.3529 63.2233 52.4421C63.1185 52.5296 62.9703 52.6758 62.7791 52.8813C62.4908 53.2017 62.2106 53.4047 61.9389 53.4895C61.6669 53.5743 61.3935 53.5501 61.1185 53.4167C60.9142 53.3178 60.7598 53.1696 60.655 52.9726C60.549 52.7777 60.5033 52.5508 60.5174 52.2923C60.5315 52.0339 60.6077 51.7673 60.7456 51.4928Z" fill="white"/>
<path d="M62.1983 47.9594C62.3748 47.4414 62.6863 47.0378 63.1316 46.7486L63.5602 47.293C63.2365 47.5528 63.0217 47.8395 62.9148 48.1526C62.8519 48.3369 62.8381 48.4923 62.8731 48.6193C62.9112 48.7446 62.989 48.8264 63.1063 48.865C63.1952 48.894 63.2768 48.8968 63.3505 48.8717C63.4267 48.8481 63.5099 48.787 63.6007 48.6891C63.6911 48.5932 63.8058 48.444 63.9451 48.2415C64.2019 47.8626 64.4576 47.6034 64.7113 47.4637C64.9673 47.3251 65.2632 47.3109 65.5986 47.421C65.9881 47.5487 66.2397 47.8045 66.3545 48.188C66.4701 48.5687 66.4486 48.9894 66.2916 49.4504C66.1848 49.7637 66.0365 50.0339 65.8472 50.2608C65.6606 50.4864 65.4495 50.6655 65.2137 50.7978L64.837 50.1594C65.2091 49.9105 65.4569 49.6036 65.5809 49.24C65.6516 49.0326 65.6658 48.8533 65.6239 48.7008C65.5809 48.5508 65.4857 48.4519 65.3377 48.4032C65.2254 48.3662 65.1275 48.3581 65.0448 48.3798C64.9632 48.4043 64.8764 48.4679 64.7837 48.5706C64.692 48.6712 64.5655 48.8356 64.4042 49.0644C64.163 49.4205 63.9133 49.6585 63.6557 49.7787C63.3978 49.8991 63.1239 49.9116 62.8329 49.8156C62.6169 49.7447 62.4437 49.6186 62.3123 49.4373C62.1804 49.2582 62.1034 49.0397 62.0822 48.7815C62.0607 48.5233 62.0993 48.2494 62.1983 47.9594Z" fill="white"/>
<path d="M1.8147 39.0878C1.8147 37.7998 2.87831 36.7562 4.18994 36.7562C5.50196 36.7562 6.5652 37.8001 6.5652 39.0878C6.5652 40.3755 5.50158 41.4191 4.18994 41.4191C2.87793 41.4191 1.8147 40.3752 1.8147 39.0878Z" fill="white"/>
<path d="M63.4612 39.0878C63.4612 37.7998 64.5247 36.7562 65.8368 36.7562C67.1487 36.7562 68.2119 37.8001 68.2119 39.0878C68.2119 40.3755 67.1484 41.4191 65.8368 41.4191C64.5247 41.4191 63.4615 40.3752 63.4612 39.0878Z" fill="white"/>
</g>
</g>
<mask id="mask24_1320_1706" style="mask-type:luminance" maskUnits="userSpaceOnUse" x="18" y="22" width="34" height="34">
<path d="M51.1052 22.9213H18.9219V55.0788H51.1052V22.9213Z" fill="white"/>
</mask>
<g mask="url(#mask24_1320_1706)">
<mask id="mask25_1320_1706" style="mask-type:luminance" maskUnits="userSpaceOnUse" x="18" y="22" width="34" height="34">
<path d="M51.1052 22.9213H18.9219V55.0788H51.1052V22.9213Z" fill="white"/>
</mask>
<g mask="url(#mask25_1320_1706)">
<path d="M51.1054 39C51.1054 47.88 43.9003 55.0786 35.0133 55.0786C26.1258 55.0786 18.9219 47.88 18.9219 39C18.9219 30.1199 26.1262 22.9213 35.0133 22.9213C43.9003 22.9213 51.1054 30.1199 51.1054 39ZM34.92 24.2751C26.7363 24.2751 20.1014 30.9038 20.1014 39.081C20.1014 47.2585 26.7363 53.8874 34.92 53.8874C43.1039 53.8874 49.7386 47.2585 49.7386 39.081C49.7386 30.9038 43.1039 24.2751 34.92 24.2751Z" fill="white"/>
<path d="M48.7084 39.1217C48.7084 46.7084 42.5533 52.8587 34.9607 52.8587C27.3674 52.8587 21.2124 46.7084 21.2124 39.1217C21.2124 31.5348 27.3678 25.3849 34.9607 25.3849C42.5533 25.3849 48.7084 31.5351 48.7084 39.1217ZM25.5741 33.8572L22.6485 35.1024L24.2199 37.9716L21.9441 40.4622L24.6531 42.4649L23.6236 45.5509L26.8742 46.3083L27.254 49.5572L30.5589 48.9612L32.13 51.7227L34.893 49.7732L37.6018 51.7227L39.2278 48.9068L42.4785 49.6648L42.8582 46.1994L46.1636 45.6053L45.1338 42.4111L47.8423 40.4622L45.6753 38.0257L47.1928 35.0481L44.1584 33.7487L44.5375 30.4466L41.1239 30.3923L40.1488 27.1983L37.0608 28.4972L34.8938 26.1153L32.7268 28.5515L29.6385 27.1983L28.5548 30.3923L25.2497 30.2838L25.5741 33.8572Z" fill="white"/>
<path d="M43.7246 42.6271L44.429 44.576L42.37 44.9552L38.9567 42.3026L38.5231 42.7897L41.5034 45.9833L41.3954 47.9874L39.3905 47.4995L37.3388 43.6115C37.1122 43.7354 36.8756 43.8439 36.63 43.9344L38.1983 48.1491L37.1141 49.7732L35.6519 48.6361L35.2273 44.2344C35.0989 44.2447 34.9689 44.2513 34.8391 44.2513C34.7091 44.2513 34.5805 44.2447 34.4529 44.2355L34.2435 48.6902L32.618 49.8814L31.5885 48.2035L33.0483 43.9349C32.8106 43.8471 32.5813 43.7441 32.3609 43.6248L30.396 47.4987L28.4455 47.9322L28.2287 46.0917L31.2215 42.7867C31.0314 42.6027 30.8549 42.4043 30.6944 42.1934L27.308 44.9L25.3575 44.5755L25.8991 42.6807L30.0166 41.0024C29.9119 40.7443 29.8281 40.4763 29.7658 40.1993L25.5197 41.2729L24.0027 40.1363L25.1943 38.7826H29.6442C29.6551 38.5733 29.6796 38.3665 29.7144 38.1643L29.6918 38.1333L25.3028 37.1587L24.4902 35.6971L26.2782 34.8307L30.1947 36.7133C30.2834 36.5382 30.3811 36.3686 30.4885 36.2053L26.9827 33.6406L26.8201 31.746H28.7705L31.4253 34.9402C31.4253 34.9402 31.4957 34.9649 31.5925 34.9956C31.753 34.8671 31.9209 34.748 32.096 34.6388C32.0579 34.5078 32.0215 34.3983 32.0215 34.3983L29.8542 31.0415L30.3422 29.0929L32.13 29.7965L33.5558 34.0164C33.734 33.9716 33.916 33.936 34.1015 33.9102L33.6467 29.5261L34.893 28.1729L36.1396 29.4718L35.6619 33.9224C35.879 33.9569 36.0898 34.0047 36.2971 34.0651L37.4941 29.9047L39.3361 28.9845L39.9865 30.9877L37.7104 34.5064L38.3066 35.0478L41.0698 31.7995H43.0209L42.858 33.6406L39.3361 36.0765L39.3902 36.51C39.3902 36.51 39.3881 36.5173 39.3848 36.5293C39.4338 36.6179 39.4814 36.7078 39.5268 36.7994C40.1143 36.5342 43.5078 34.8858 43.5078 34.8858L45.2956 35.752C45.2956 35.752 44.6456 37.322 44.4832 37.322C44.3401 37.322 40.8242 37.9882 39.9598 38.1523C40.0022 38.3928 40.0281 38.6391 40.0362 38.8897L44.5365 38.838L45.7828 40.2461L44.2112 41.3824L39.8964 40.2648C39.8339 40.5252 39.7528 40.7788 39.6524 41.0217L43.7246 42.6271ZM34.9474 35.1563C34.559 35.1563 34.2432 35.4715 34.2432 35.8602C34.2432 36.2488 34.5587 36.5643 34.9474 36.5643C35.3364 36.5643 35.6519 36.2493 35.6519 35.8602C35.6519 35.4715 35.3361 35.1563 34.9474 35.1563ZM37.1685 36.0765C36.7799 36.0765 36.4646 36.3917 36.4646 36.7804C36.4646 37.1693 36.7796 37.4846 37.1685 37.4846C37.5578 37.4846 37.8733 37.1693 37.8733 36.7804C37.8733 36.3917 37.5578 36.0765 37.1685 36.0765ZM38.1439 38.3502C37.7553 38.3502 37.44 38.6657 37.44 39.0541C37.44 39.4424 37.755 39.7574 38.1439 39.7574C38.5332 39.7574 38.849 39.4427 38.849 39.0541C38.849 38.6657 38.5334 38.3502 38.1439 38.3502ZM37.2227 40.6241C36.8343 40.6241 36.5182 40.9391 36.5182 41.3278C36.5182 41.717 36.834 42.0311 37.2227 42.0311C37.6119 42.0311 37.9274 41.7164 37.9274 41.3278C37.9274 40.9391 37.6119 40.6241 37.2227 40.6241ZM34.9474 41.652C34.559 41.652 34.2432 41.9678 34.2432 42.3567C34.2432 42.7448 34.5587 43.0601 34.9474 43.0601C35.3364 43.0601 35.6519 42.7451 35.6519 42.3567C35.6519 41.9681 35.3361 41.652 34.9474 41.652ZM32.726 40.6241C32.337 40.6241 32.022 40.9391 32.022 41.3278C32.022 41.717 32.337 42.0311 32.726 42.0311C33.1152 42.0311 33.4305 41.717 33.4305 41.3278C33.4305 40.9391 33.1152 40.6241 32.726 40.6241ZM31.6965 38.3502C31.3075 38.3502 30.9925 38.6657 30.9925 39.0541C30.9925 39.4424 31.3075 39.7574 31.6965 39.7574C32.0857 39.7574 32.4009 39.4427 32.4009 39.0541C32.4009 38.6657 32.0857 38.3502 31.6965 38.3502ZM32.5636 36.0765C32.1744 36.0765 31.8594 36.3917 31.8594 36.7804C31.8594 37.1693 32.1744 37.4846 32.5636 37.4846C32.9528 37.4846 33.2675 37.1693 33.2675 36.7804C33.2675 36.3917 32.9528 36.0765 32.5636 36.0765ZM34.893 38.1341C34.3841 38.1341 33.9725 38.5459 33.9725 39.0543C33.9725 39.5626 34.3844 39.974 34.893 39.974C35.4019 39.974 35.8137 39.5623 35.8137 39.0543C35.8137 38.5459 35.4019 38.1341 34.893 38.1341Z" fill="white"/>
</g>
</g>
<path d="M3.26097 28.922C3.33101 28.6983 3.42485 28.507 3.54328 28.3485C3.66394 28.1906 3.81773 28.0539 4.0047 27.9381L4.38789 28.4616C4.265 28.5502 4.16782 28.6415 4.09631 28.7352C4.02407 28.8315 3.96782 28.9432 3.92797 29.0709C3.76784 29.5832 4.07656 29.961 4.85454 30.2034C5.24929 30.3265 5.55467 30.348 5.77031 30.267C5.98519 30.189 6.13079 30.027 6.20714 29.7816C6.24476 29.6612 6.25966 29.5457 6.25221 29.4351C6.24514 29.322 6.21981 29.1834 6.17586 29.0195L6.81454 28.8149C6.97616 29.2187 6.99292 29.6269 6.86445 30.0381C6.76278 30.3632 6.60227 30.6233 6.38255 30.8187C6.16283 31.0138 5.90027 31.1356 5.59489 31.1829C5.28764 31.2272 4.9536 31.1929 4.59236 31.0801C4.23111 30.9674 3.93208 30.804 3.69522 30.5901C3.45874 30.3738 3.30231 30.1216 3.22596 29.834C3.14964 29.546 3.16117 29.2418 3.26097 28.922Z" fill="white"/>
<path d="M4.76735 25.0844C4.81911 24.9638 4.88093 24.8615 4.95318 24.7774L5.66337 25.2425C5.59523 25.3311 5.54048 25.423 5.49952 25.5183C5.41686 25.7106 5.42055 25.8934 5.51108 26.0664C5.60231 26.2372 5.7766 26.4161 6.03356 26.6033L7.78241 27.3538L7.44054 28.1496L4.15845 26.7406L4.45417 26.053L5.13381 26.2539C4.93123 26.0738 4.79939 25.8826 4.73756 25.6809C4.67389 25.4781 4.68392 25.2794 4.76735 25.0844Z" fill="white"/>
<path d="M8.47197 22.1131C8.51143 22.1354 8.61011 22.1991 8.76839 22.3036L7.65822 24.2479C7.97217 24.3949 8.23138 24.4395 8.43546 24.3819C8.64104 24.322 8.80639 24.1828 8.93151 23.9636C9.00898 23.8278 9.05962 23.6856 9.08383 23.5368C9.10877 23.3913 9.11288 23.2239 9.09612 23.0345L9.7013 22.966C9.78322 23.4683 9.70353 23.9309 9.46256 24.3536C9.19258 24.8265 8.84028 25.1075 8.40603 25.1964C7.9707 25.2876 7.50182 25.1904 7.00017 24.9043C6.68474 24.7246 6.43224 24.508 6.24268 24.255C6.05312 24.0019 5.94588 23.7318 5.92131 23.4449C5.89746 23.1558 5.96712 22.8689 6.12947 22.5842C6.37713 22.1507 6.70598 21.8928 7.11599 21.8102C7.52715 21.731 7.97927 21.8322 8.47197 22.1131ZM7.86753 22.752L7.83141 22.7316C7.28806 22.422 6.90111 22.4685 6.67135 22.8711C6.56631 23.0549 6.55143 23.2365 6.6259 23.4155C6.70299 23.596 6.88512 23.7809 7.17186 23.9707L7.86753 22.752Z" fill="white"/>
<path d="M11.4913 19.62C11.6038 19.7052 11.6983 19.7499 11.7743 19.7536C11.8525 19.7592 11.9348 19.7361 12.0216 19.6848L12.3672 20.1741C12.2313 20.324 12.0923 20.426 11.9501 20.4799C11.8082 20.5335 11.6503 20.5376 11.4764 20.4911C11.546 20.6958 11.5613 20.8967 11.5218 21.0946C11.4823 21.2926 11.3944 21.482 11.2574 21.6629C11.044 21.9442 10.7926 22.1064 10.5033 22.15C10.2176 22.1927 9.9439 22.1153 9.68245 21.9174C9.37485 21.6844 9.22402 21.3931 9.22998 21.0433C9.23632 20.6969 9.39721 20.3158 9.71226 19.9002L9.9819 19.5445L9.82212 19.4235C9.63926 19.2851 9.47837 19.2297 9.33984 19.2579C9.20354 19.2873 9.06425 19.3956 8.92311 19.5824C8.76633 19.7893 8.62668 20.0777 8.50453 20.4468L7.91089 20.2537C8.04572 19.796 8.23974 19.4004 8.49262 19.067C9.04415 18.3399 9.6456 18.2227 10.297 18.7158L11.4913 19.62ZM10.8962 21.0999C11.0731 20.8669 11.095 20.5957 10.9621 20.2868L10.386 19.8507L10.1711 20.1339C9.83292 20.58 9.82846 20.9276 10.1584 21.1773C10.2951 21.2807 10.4265 21.3265 10.5528 21.3146C10.6809 21.3042 10.7952 21.2327 10.8962 21.0999Z" fill="white"/>
<path d="M13.7498 17.5343L14.3575 17.6996C14.3356 17.8532 14.2864 18.0021 14.2108 18.1461C14.1367 18.2882 14.0436 18.4174 13.9315 18.5335C13.6827 18.7839 13.4247 18.9067 13.1569 18.9011C12.891 18.897 12.6199 18.7623 12.3439 18.4962L10.9868 17.1898L10.5984 17.5928L10.1515 17.1626L10.5399 16.7596L9.97314 16.2137L10.4982 15.5224L11.1388 16.1389L11.7164 15.5398L12.103 16.0325L11.5857 16.5691L12.929 17.8622C13.0545 17.9827 13.1662 18.0486 13.2645 18.0594C13.361 18.0683 13.4548 18.0255 13.5457 17.931C13.6366 17.8365 13.7047 17.7044 13.7498 17.5343Z" fill="white"/>
<path d="M12.6368 14.6691L13.2799 14.089L15.6738 16.738L15.0306 17.3181L12.6368 14.6691ZM11.7418 13.0415C11.8618 12.9332 11.9929 12.883 12.1355 12.8901C12.2796 12.8994 12.4007 12.9582 12.4986 13.0668C12.5984 13.1773 12.6446 13.3035 12.6375 13.446C12.6286 13.5866 12.5641 13.7109 12.4442 13.8188C12.3262 13.9253 12.197 13.9759 12.0562 13.9703C11.9135 13.9628 11.7925 13.9041 11.6927 13.7939C11.5947 13.6853 11.5486 13.5591 11.5542 13.4147C11.5616 13.2722 11.6242 13.1479 11.7418 13.0415Z" fill="white"/>
<path d="M16.1535 11.9341L16.8741 11.4139L18.0279 14.9843L17.1903 15.589L14.1414 13.3868L14.9022 12.8376L17.203 14.7216L16.1535 11.9341Z" fill="white"/>
<path d="M17.779 10.852L18.5212 10.4055L20.3643 13.4631L19.6217 13.9096L17.779 10.852ZM17.2122 9.08341C17.3503 9.00006 17.4889 8.97587 17.6274 9.01009C17.767 9.04656 17.8747 9.1273 17.9503 9.2527C18.027 9.37998 18.0482 9.51282 18.014 9.65162C17.9782 9.7878 17.8914 9.89757 17.7529 9.98093C17.6166 10.0628 17.4799 10.0877 17.3429 10.0553C17.2043 10.0211 17.0967 9.94 17.02 9.81273C16.9444 9.68733 16.9232 9.55448 16.9563 9.41419C16.9906 9.27578 17.0759 9.16562 17.2122 9.08341Z" fill="white"/>
<path d="M22.7374 11.4872L23.2495 11.8545C23.175 11.9907 23.0771 12.1131 22.9557 12.2214C22.8365 12.3289 22.7043 12.4175 22.5583 12.4871C22.2377 12.6352 21.9528 12.6597 21.7044 12.5607C21.4567 12.464 21.25 12.243 21.0839 11.8977L20.2694 10.1997L19.7645 10.4416L19.4963 9.88268L20.0013 9.64082L19.6609 8.93159L20.395 8.46683L20.7793 9.26797L21.5297 8.90852L21.7196 9.50537L21.0474 9.82723L21.8537 11.508C21.9289 11.6647 22.0109 11.7655 22.0991 11.8098C22.1863 11.8519 22.289 11.8444 22.4075 11.7879C22.5259 11.7313 22.6354 11.6309 22.7374 11.4872Z" fill="white"/>
<path d="M25.4887 7.44316L25.5933 11.2093C25.6045 11.6707 25.5136 12.0666 25.3204 12.397C25.1263 12.7252 24.796 12.9935 24.3294 13.2019L24.0374 12.6393C24.2467 12.5276 24.4069 12.4175 24.5182 12.3085C24.6295 12.1994 24.7074 12.0796 24.7517 11.9486C24.7964 11.8177 24.8232 11.6558 24.8322 11.463L24.5506 11.5628L22.29 8.57696L23.1529 8.2711L24.8861 10.8342L24.6471 7.7416L25.4887 7.44316Z" fill="white"/>
<path d="M27.4367 9.58351C27.5904 9.54334 27.7316 9.5597 27.86 9.633C27.9889 9.7063 28.0732 9.81832 28.1127 9.96938C28.1342 10.0524 28.1431 10.1413 28.1393 10.2358C28.1358 10.3307 28.1208 10.4531 28.095 10.6031L27.9234 11.68L27.4147 11.8132L27.3875 10.6202C27.2147 10.5584 27.1034 10.4315 27.0531 10.2388C27.0147 10.0925 27.0326 9.95636 27.1063 9.83023C27.1801 9.70407 27.2903 9.62183 27.4367 9.58351Z" fill="white"/>
<path d="M32.2004 6.10208C32.4338 6.07865 32.6465 6.09017 32.8391 6.1367C33.0317 6.18581 33.2177 6.27324 33.3981 6.39978L33.0662 6.95755C32.9368 6.87941 32.8144 6.82582 32.7001 6.79682C32.5832 6.76815 32.458 6.76035 32.325 6.77375C31.7903 6.82769 31.564 7.25933 31.6456 8.06942C31.6869 8.48059 31.787 8.76973 31.9461 8.93606C32.1025 9.10277 32.3084 9.17307 32.5641 9.14742C32.6898 9.13475 32.8018 9.10312 32.9009 9.0529C33.002 9.00229 33.1198 8.92451 33.2539 8.81958L33.6929 9.32638C33.3842 9.63376 33.0151 9.80865 32.5859 9.85219C32.247 9.88641 31.9445 9.84064 31.6782 9.71524C31.4119 9.58985 31.1976 9.39634 31.0338 9.13437C30.8728 8.86945 30.7733 8.5487 30.7357 8.1725C30.6977 7.79628 30.7308 7.45729 30.8347 7.15551C30.9414 6.85338 31.1119 6.61076 31.3472 6.42767C31.5822 6.2446 31.8667 6.13594 32.2004 6.10208Z" fill="white"/>
<path d="M36.0576 6.01649C36.5826 6.02804 36.9884 6.20478 37.2759 6.54637C37.5634 6.88574 37.7008 7.34752 37.6877 7.93211C37.6796 8.30496 37.6039 8.63351 37.4614 8.91782C37.3213 9.19949 37.1236 9.41569 36.8676 9.56639C36.612 9.7197 36.3114 9.79226 35.9662 9.78482C35.4391 9.77291 35.0303 9.59617 34.7401 9.25458C34.4526 8.91298 34.3152 8.4471 34.3285 7.85732C34.337 7.48447 34.4109 7.15812 34.551 6.87903C34.6935 6.59997 34.894 6.38377 35.1521 6.23081C35.4078 6.08011 35.7095 6.00869 36.0576 6.01649ZM36.0429 6.67028C35.5259 6.65875 35.2582 7.06136 35.2403 7.87778C35.231 8.30124 35.2868 8.61381 35.4086 8.8155C35.5327 9.01976 35.7233 9.12508 35.9806 9.13065C36.238 9.13625 36.4319 9.03876 36.5625 8.83743C36.6952 8.63873 36.7667 8.33026 36.7762 7.912C36.7855 7.49376 36.7281 7.18342 36.6038 6.98138C36.4819 6.77931 36.2951 6.67588 36.0429 6.67028Z" fill="white"/>
<path d="M39.4648 10.0628C39.1945 10.0278 38.9921 9.92026 38.858 9.74016C38.7234 9.56266 38.675 9.32899 38.7125 9.03876L39.2505 4.89198L40.122 4.90949L39.575 9.12396C39.5532 9.28879 39.6093 9.37997 39.7417 9.39709C39.8092 9.40601 39.8786 9.4034 39.9487 9.38965L40.0505 10.0166C39.8625 10.0736 39.6672 10.0888 39.4648 10.0628Z" fill="white"/>
<path d="M41.6578 10.4795C41.391 10.4245 41.1973 10.3021 41.0768 10.1123C40.9558 9.9251 40.9251 9.68843 40.9844 9.40228L41.833 5.30725L42.701 5.39022L41.8384 9.55186C41.8044 9.71485 41.8531 9.80975 41.984 9.8369C42.0506 9.85068 42.1194 9.85329 42.191 9.84473L42.2453 10.4777C42.0536 10.5205 41.8577 10.5208 41.6578 10.4795Z" fill="white"/>
<path d="M45.7824 10.6254C45.7397 10.7601 45.7293 10.8636 45.7511 10.9369C45.7723 11.0124 45.8216 11.082 45.8991 11.1464L45.5531 11.6357C45.3662 11.5579 45.2234 11.4612 45.1252 11.3454C45.0268 11.2297 44.9707 11.0824 44.9561 10.903C44.7866 11.037 44.6019 11.1188 44.402 11.1482C44.2021 11.1776 43.9943 11.1579 43.7775 11.0891C43.4407 10.9823 43.2036 10.8003 43.0657 10.5424C42.9294 10.2879 42.9112 10.0044 43.0102 9.69181C43.1268 9.32415 43.351 9.08453 43.6831 8.97288C44.0119 8.86276 44.4251 8.88656 44.9226 9.04433L45.3483 9.17902L45.4089 8.98815C45.4783 8.76935 45.4767 8.59968 45.4038 8.47873C45.3303 8.3604 45.1818 8.2655 44.958 8.19481C44.7104 8.11629 44.3919 8.0817 44.0027 8.09026L43.9864 7.46661C44.4629 7.44055 44.9011 7.49077 45.3001 7.61693C46.1705 7.89265 46.4822 8.41992 46.2353 9.19837L45.7824 10.6254ZM44.1874 10.5607C44.4664 10.6492 44.7292 10.5789 44.9767 10.3504L45.1951 9.66202L44.856 9.55448C44.3223 9.38519 43.9926 9.49793 43.8675 9.892C43.8158 10.0553 43.8166 10.1945 43.8702 10.3091C43.923 10.4263 44.0288 10.5101 44.1874 10.5607Z" fill="white"/>
<path d="M49.8263 9.44548C50.2014 9.61998 50.4256 9.90652 50.499 10.3043C50.5722 10.7024 50.4835 11.1702 50.233 11.7075C50.0766 12.0435 49.8856 12.3159 49.6602 12.525C49.4371 12.7353 49.1959 12.8677 48.9364 12.9224C48.6758 12.9794 48.4155 12.947 48.1549 12.8257C47.9787 12.7438 47.8359 12.6326 47.726 12.4927C47.6161 12.3524 47.5386 12.1901 47.4939 12.0052L47.2924 12.3118L46.5996 11.9896L48.7114 7.4584L49.5367 7.73823L48.722 9.48602C48.8953 9.38892 49.0773 9.3357 49.2677 9.32714C49.4572 9.32081 49.6436 9.36025 49.8263 9.44548ZM48.212 12.1391C48.4245 12.2381 48.6331 12.224 48.8371 12.0964C49.0403 11.9713 49.2323 11.7142 49.4132 11.3261C49.6028 10.9194 49.6822 10.6061 49.6512 10.3854C49.618 10.164 49.5019 10.0073 49.3027 9.91508C49.0536 9.79897 48.7715 9.84586 48.4568 10.055L47.7893 11.488C47.8035 11.6364 47.8465 11.7678 47.9188 11.8817C47.9933 11.997 48.091 12.0826 48.212 12.1391Z" fill="white"/>
<path d="M53.5254 11.5907C53.9647 11.8772 54.2166 12.2411 54.2802 12.6832C54.3455 13.123 54.2185 13.5878 53.8989 14.0778C53.6949 14.3904 53.4571 14.6297 53.186 14.796C52.9183 14.9616 52.636 15.0408 52.3392 15.0341C52.0414 15.0293 51.7473 14.9329 51.4577 14.7439C51.0159 14.4562 50.7624 14.0905 50.6966 13.6473C50.6324 13.2052 50.7622 12.7375 51.0842 12.2433C51.2882 11.9308 51.5232 11.693 51.7898 11.5296C52.0585 11.3674 52.3425 11.2896 52.6428 11.2956C52.9395 11.3023 53.2338 11.4009 53.5254 11.5907ZM53.1675 12.1388C52.7344 11.8563 52.2946 12.0573 51.848 12.7412C51.6162 13.0958 51.499 13.3909 51.496 13.6268C51.4936 13.8661 51.5999 14.0559 51.8156 14.1962C52.0313 14.3364 52.2476 14.3558 52.4646 14.2534C52.6825 14.1548 52.9061 13.9301 53.1351 13.5799C53.3638 13.2294 53.4789 12.9358 53.48 12.6988C53.4832 12.4632 53.3791 12.2765 53.1675 12.1388Z" fill="white"/>
<path d="M57.3788 14.5199C57.4794 14.604 57.5602 14.6922 57.6206 14.7852L56.9716 15.3326C56.906 15.2418 56.8337 15.1632 56.7542 15.097C56.5935 14.9631 56.4172 14.9143 56.2252 14.9515C56.0354 14.9902 55.8137 15.106 55.5607 15.2987L54.3416 16.7588L53.676 16.2044L55.9644 13.4639L56.5399 13.9435L56.1529 14.5366C56.3835 14.3941 56.6046 14.3223 56.8157 14.3212C57.0287 14.3182 57.2167 14.3844 57.3788 14.5199Z" fill="white"/>
<path d="M58.3024 19.3472C58.2004 19.4447 58.1411 19.5307 58.125 19.6051C58.1074 19.6814 58.1169 19.7662 58.1539 19.86L57.6153 20.1227C57.4886 19.9646 57.4105 19.8113 57.3795 19.6624C57.349 19.5136 57.3705 19.3573 57.4442 19.1932C57.2312 19.2293 57.03 19.2122 56.8406 19.1418C56.6516 19.0715 56.4783 18.9543 56.3214 18.7898C56.0777 18.5346 55.9577 18.2607 55.961 17.9686C55.9643 17.6798 56.0848 17.4223 56.3214 17.1961C56.6007 16.93 56.913 16.8277 57.2579 16.8891C57.599 16.9505 57.9496 17.17 58.3097 17.5477L58.6182 17.8703L58.7634 17.7319C58.9296 17.5734 59.0096 17.4238 59.0041 17.2832C58.9965 17.144 58.9119 16.9896 58.7501 16.8199C58.5706 16.632 58.3084 16.4485 57.9626 16.2692L58.2488 15.7144C58.6794 15.9205 59.039 16.175 59.3281 16.4779C59.9586 17.138 59.9779 17.7502 59.3866 18.3135L58.3024 19.3472ZM56.9356 18.5234C57.1374 18.7351 57.4018 18.7999 57.7285 18.7187L58.2512 18.2201L58.0059 17.963C57.6194 17.5581 57.2764 17.4982 56.9769 17.7836C56.8529 17.902 56.7868 18.0244 56.7784 18.1509C56.7683 18.2789 56.8205 18.4032 56.9356 18.5234Z" fill="white"/>
<path d="M60.0022 21.9085L59.7419 22.4815C59.5936 22.435 59.4544 22.3632 59.3244 22.2653C59.196 22.1697 59.0831 22.0569 58.9857 21.9278C58.7779 21.6424 58.6982 21.3681 58.7466 21.1051C58.7934 20.8435 58.9699 20.5975 59.2768 20.3679L60.7842 19.2382L60.448 18.7906L60.9447 18.4185L61.2806 18.8661L61.9103 18.3943L62.5095 19.0228L61.7982 19.556L62.2976 20.2213L61.7492 20.5238L61.3018 19.9277L59.8093 21.0463C59.6701 21.1505 59.5874 21.2506 59.5613 21.3458C59.5371 21.4396 59.5643 21.5389 59.6429 21.6435C59.7215 21.7484 59.8412 21.8366 60.0022 21.9085Z" fill="white"/>
<path d="M63.0106 21.2677L63.4811 21.9948L60.4815 23.9331L60.0112 23.206L63.0106 21.2677ZM64.7614 20.6452C64.849 20.7806 64.8779 20.9179 64.8482 21.0574C64.8161 21.1981 64.7386 21.3082 64.6156 21.3875C64.4905 21.4683 64.3583 21.4936 64.2191 21.4638C64.0817 21.4325 63.9694 21.3492 63.8812 21.2137C63.795 21.0805 63.7659 20.9447 63.7934 20.8066C63.8233 20.6671 63.9008 20.557 64.0259 20.4766C64.1489 20.3973 64.2811 20.3716 64.4228 20.4003C64.5626 20.4301 64.6755 20.5119 64.7614 20.6452Z" fill="white"/>
<path d="M65.0071 24.665C65.2429 25.1335 65.2772 25.5748 65.1096 25.9886C64.9445 26.4016 64.601 26.7392 64.0779 27.0022C63.7444 27.1697 63.4186 27.2571 63.1003 27.2647C62.7856 27.2731 62.5019 27.1997 62.2487 27.045C61.9933 26.891 61.7879 26.6599 61.6332 26.3514C61.3963 25.8807 61.3609 25.4372 61.5271 25.0208C61.6941 24.6066 62.0417 24.2672 62.5691 24.0023C62.9026 23.8348 63.2255 23.7474 63.538 23.74C63.8516 23.7348 64.1364 23.8103 64.3932 23.9662C64.6458 24.1214 64.8507 24.3539 65.0071 24.665ZM64.4223 24.9586C64.1897 24.4968 63.7085 24.4496 62.9782 24.8165C62.5996 25.0066 62.3496 25.2027 62.2283 25.4048C62.1056 25.6102 62.1024 25.8279 62.2177 26.0575C62.3333 26.287 62.5109 26.4124 62.75 26.4333C62.988 26.4575 63.294 26.3756 63.6683 26.1881C64.0425 26.0001 64.2895 25.8041 64.4103 25.5998C64.5316 25.3977 64.5357 25.1841 64.4223 24.9586Z" fill="white"/>
<path d="M66.8943 29.2959C67.0001 29.5981 66.9925 29.8637 66.872 30.0925C66.7499 30.3249 66.5271 30.4972 66.2031 30.6102L63.763 31.4612L63.4785 30.6475L65.7938 29.84C65.9915 29.771 66.1183 29.6867 66.174 29.587C66.2312 29.4897 66.2355 29.3734 66.1885 29.2375C66.1395 29.0973 66.0527 28.9858 65.9276 28.904C65.7995 28.8206 65.6336 28.7556 65.4307 28.7092L63.0871 29.5267L62.8015 28.7092L66.174 27.5329L66.421 28.2395L66.0038 28.4572C66.4553 28.6094 66.752 28.8891 66.8943 29.2959Z" fill="white"/>
</g>
</g>
</g>
</g>
</mask>
<g mask="url(#mask17_1320_1706)">
<path d="M271.589 0H0.748047V78.2859H271.589V0Z" fill="url(#paint2_linear_1320_1706)"/>
</g>
</g>
</g>
</g>
</g>
<defs>
<linearGradient id="paint0_linear_1320_1706" x1="15.3735" y1="39.143" x2="255.609" y2="39.143" gradientUnits="userSpaceOnUse">
<stop stop-color="#0F3054"/>
<stop offset="0.498" stop-color="#3B8DCB"/>
<stop offset="1" stop-color="#0F3054"/>
</linearGradient>
<linearGradient id="paint1_linear_1320_1706" x1="15.3735" y1="39.143" x2="255.609" y2="39.143" gradientUnits="userSpaceOnUse">
<stop stop-color="#26282A"/>
<stop offset="0.498" stop-color="#9E9FA0"/>
<stop offset="1" stop-color="#26282A"/>
</linearGradient>
<linearGradient id="paint2_linear_1320_1706" x1="15.3735" y1="39.143" x2="255.609" y2="39.143" gradientUnits="userSpaceOnUse">
<stop stop-color="#0F3054"/>
<stop offset="0.498" stop-color="#3B8DCB"/>
<stop offset="1" stop-color="#0F3054"/>
</linearGradient>
<clipPath id="clip0_1320_1706">
<rect width="272" height="78" fill="white" transform="translate(0.333252)"/>
</clipPath>
</defs>
</svg>
